# xmcd
#
# Track frame offsets:
# 150
# 20326
# 41082
# 79071
# 92475
# 107222
# 132946
# 157066
# 186524
# 207813
# 242571
# 273941
# 296543
# 322347
#
# Disc length: 4561 seconds
#
# Revision: 0
# Processed by: cddbd v1.4PL0 Copyright (c) Steve Scherf et al.
# Submitted via: Audion 3.0.2 (http://www.panic.com/audion/)
#
DISCID=c911cf0e
DTITLE=Buddy Guy - Buddy's Baddest
DYEAR=1900
DGENRE=
TTITLE0=Damn Right I've Got The
TTITLE1=Five Long Years
TTITLE2=Mustang Sally
TTITLE3=Rememberin' Stevie
TTITLE4=She's A Superstar
TTITLE5=Feels Like Rain
TTITLE6=She's Nineteen Years Old
TTITLE7=I Smell Trouble
TTITLE8=Someone Else Is Steppin'
TTITLE9=My Time After Awhile (li
TTITLE10=Midnight Train
TTITLE11=Miss Ida B
TTITLE12=I Need Your Love So Bad
TTITLE13=Innocent man
EXTD=
EXTT0=
EXTT1=
EXTT2=
EXTT3=
EXTT4=
EXTT5=
EXTT6=
EXTT7=
EXTT8=
EXTT9=
EXTT10=
EXTT11=
EXTT12=
EXTT13=
PLAYORDER=
